<?xml version="1.0" standalone="no"?><!DOCTYPE svg PUBLIC "-//W3C//DTD SVG 1.1//EN" "http://www.w3.org/Graphics/SVG/1.1/DTD/svg11.dtd">
<svg t="1712476775888"
     class="icon"
     viewBox="0 0 1024 1024"
     version="1.1"
     xmlns="http://www.w3.org/2000/svg"
     p-id="2633"
     xmlns:xlink="http://www.w3.org/1999/xlink"
     width="200"
     height="200">
    <path
        d="M876.8 60.8c47.616 0 86.4 38.784 86.4 86.4v729.6c0 47.616-38.784 86.4-86.4 86.4H147.2c-47.616 0-86.4-38.784-86.4-86.4V147.2c0-47.616 38.784-86.4 86.4-86.4h729.6m0-28.8H147.2C83.84 32 32 83.84 32 147.2v729.6c0 63.36 51.84 115.2 115.2 115.2h729.6c63.36 0 115.2-51.84 115.2-115.2V147.2c0-63.36-51.84-115.2-115.2-115.2z"
        fill="#E47C29"
        p-id="2634"></path>
    <path
        d="M178.784 452l70.848-81.216c1.824-1.824 4.032-2.976 6.528-3.264 2.496-0.384 4.704 0.384 6.528 2.208 2.112 1.824 3.264 4.128 3.456 6.72a8.16 8.16 0 0 1-2.4 6.72l-70.464 81.216c-2.304 2.496-4.704 3.648-7.296 3.456-2.496-0.192-4.704-1.152-6.528-2.784a10.656 10.656 0 0 1-2.976-6.048c-0.288-2.4 0.48-4.704 2.304-7.008z m57.408 204.192c-2.784 0-5.088-0.864-6.912-2.592a8.496 8.496 0 0 1-2.784-6.432V532.832h-40.416c-3.936 0-6.816-1.824-8.64-5.568-1.632-3.936-1.152-7.296 1.344-9.984l70.848-81.216a9.408 9.408 0 0 1 6.528-3.456c2.496-0.192 4.704 0.576 6.528 2.4 2.112 1.824 3.264 4.032 3.456 6.528 0.192 2.496-0.576 4.8-2.4 6.912l-57.024 65.28h29.376c2.496 0 4.704 0.96 6.528 2.976 1.824 1.92 2.784 4.224 2.784 6.72v123.744a8.64 8.64 0 0 1-2.784 6.432 8.832 8.832 0 0 1-6.432 2.592z m242.304-84.96H460.16v42.528c0 11.52-3.84 20.928-11.616 28.32s-17.568 11.04-29.568 11.04h-27.264c-2.496 0-4.8-0.864-6.72-2.592a8.352 8.352 0 0 1-2.976-6.432c0-2.784 0.96-5.088 2.976-6.912 1.92-1.824 4.224-2.784 6.72-2.784h27.264c6.432 0 11.712-1.728 15.936-5.184s6.24-8.64 6.24-15.552v-42.528H282.176c-2.496 0-4.8-0.96-6.72-2.784a9.216 9.216 0 0 1-2.976-6.912c0-2.496 0.96-4.704 2.976-6.528 1.92-1.824 4.224-2.784 6.72-2.784h158.976v-24.576H290.816c-2.496 0-4.704-0.96-6.528-2.784a9.408 9.408 0 0 1-2.784-6.912c0-2.496 0.96-4.704 2.784-6.528 1.824-1.824 4.032-2.784 6.528-2.784h183.552c2.496 0 4.704 0.96 6.528 2.784 1.824 1.824 2.784 4.032 2.784 6.528 0 2.784-0.96 5.088-2.784 6.912-1.824 1.824-4.032 2.784-6.528 2.784H460.16v24.576h18.336c2.496 0 4.704 0.96 6.528 2.784 1.824 1.824 2.784 4.032 2.784 6.528 0 2.784-0.96 5.088-2.784 6.912-1.824 1.92-4.032 2.88-6.528 2.88zM369.92 624.8l-79.488-24.864c-2.496-0.96-4.416-2.496-5.664-4.8a8.4384 8.4384 0 0 1-0.48-7.296c0.672-2.496 2.208-4.416 4.512-5.568 2.304-1.152 4.704-1.344 7.296-0.672l79.488 24.864c3.264 1.152 5.28 2.976 6.24 5.376 0.96 2.4 0.768 4.8-0.384 7.104-0.672 2.304-2.112 4.128-4.128 5.376-2.208 1.248-4.608 1.344-7.392 0.48z m68.448-132.768h-142.08c-2.496 0-4.704-0.96-6.528-2.976-1.824-1.92-2.784-4.224-2.784-6.72v-91.2c0-2.496 0.96-4.8 2.784-6.72 1.824-1.92 4.032-2.976 6.528-2.976h172.8c2.496 0 4.704 0.96 6.528 2.976 1.824 1.92 2.784 4.224 2.784 6.72v62.88c0 11.712-3.552 21.024-10.752 27.84-7.008 6.816-16.8 10.176-29.28 10.176z m21.12-91.584H305.984v26.976h153.408v-26.976z m-153.504 72.576h132.384c7.104 0 12.48-1.728 15.936-5.184 3.456-3.456 5.184-8.064 5.184-13.824v-7.968H305.984v26.976zM528.224 553.28l50.496-16.896v-99.84h-28.992l-9.024 67.776c-0.48 3.264-1.728 5.472-3.84 6.72s-4.416 1.824-6.912 1.536c-2.304-0.48-4.32-1.536-6.048-3.264s-2.4-4.224-1.92-7.392l14.88-112.704c0.48-2.496 1.728-4.608 3.84-6.24 2.112-1.632 4.416-2.208 6.912-1.728 2.496 0.48 4.704 1.728 6.432 3.84 1.728 2.112 2.4 4.416 1.92 6.912l-3.456 25.536h26.304v-39.744c0-2.784 0.96-5.088 2.784-6.912 1.728-1.92 3.84-2.88 6.432-2.88 2.496 0 4.8 0.96 6.72 2.784 1.92 1.824 2.976 4.128 2.976 6.912v39.744h21.408c2.496 0 4.8 0.96 6.72 2.976 1.92 1.92 2.976 4.224 2.976 6.72s-0.96 4.704-2.976 6.528c-1.92 1.824-4.224 2.784-6.72 2.784h-21.408v93.696l18.624-6.528c2.496-0.96 4.896-0.768 7.104 0.384 2.208 1.152 3.744 2.976 4.704 5.568 0.96 2.496 0.768 4.992-0.384 7.296s-2.976 3.936-5.568 4.8l-24.576 8.256v97.824c0 2.496-0.96 4.704-2.976 6.528-1.92 1.824-4.224 2.784-6.72 2.784-2.496 0-4.704-0.96-6.528-2.784a9.0144 9.0144 0 0 1-2.784-6.528v-91.2l-44.544 14.88c-2.976 1.152-5.568 0.96-7.776-0.48-2.208-1.536-3.648-3.552-4.32-6.048-0.48-2.304-0.288-4.512 0.48-6.72 0.864-2.496 2.784-4.032 5.76-4.896z m287.232-158.016c2.496 0 4.8 0.96 6.72 2.784 1.92 1.824 2.976 4.032 2.976 6.528v198.72c0 14.496-3.84 26.4-11.616 35.808-7.68 9.312-18.912 14.016-33.696 14.016h-24.192c-2.496 0-4.704-0.96-6.528-2.976-1.824-1.92-2.784-4.224-2.784-6.72 0-2.496 0.96-4.704 2.784-6.432a9.216 9.216 0 0 1 6.528-2.592h24.192c8.736 0 15.36-2.976 19.68-9.024 4.416-5.952 6.528-13.344 6.528-22.08V414.272h-26.976c-1.824 18.912-4.32 38.4-7.392 58.56-3.072 20.16-7.008 40.416-11.616 60.672s-9.984 40.224-16.224 60c-6.24 19.68-13.248 38.496-21.12 56.544-1.152 2.784-2.976 4.512-5.376 5.184s-4.704 0.576-6.72-0.384c-2.304-1.152-4.032-2.784-5.184-4.992-1.152-2.208-1.152-4.704 0-7.392 7.392-16.128 14.016-33.696 20.064-52.704 5.952-19.008 11.232-38.496 15.744-58.368 4.512-19.968 8.256-39.936 11.424-60s5.568-39.072 7.392-57.024H710.72c-1.824 18.912-4.512 38.4-8.16 58.368-3.552 20.064-7.872 40.224-12.96 60.48-5.088 20.256-11.04 40.32-17.76 60.096-6.816 19.776-14.304 38.784-22.656 57.024-1.152 2.496-2.976 4.128-5.376 4.8s-4.704 0.48-6.72-0.672c-2.304-0.96-4.032-2.496-5.184-4.704-1.152-2.208-1.056-4.8 0.384-7.776 7.872-15.936 14.976-33.312 21.408-52.32 6.432-19.008 12.192-38.496 17.088-58.368 4.992-19.968 9.12-39.936 12.576-60 3.456-20.064 6.048-39.072 7.968-57.024h-23.136l-21.408 79.488c-0.96 3.264-2.496 5.28-4.8 6.048-2.304 0.768-4.704 0.864-7.296 0.192-2.112-0.672-3.84-2.016-5.376-3.936-1.536-1.92-1.632-4.512-0.48-7.776l30.432-113.376c0.96-2.496 2.496-4.416 4.704-5.664 2.208-1.248 4.512-1.536 7.104-0.864 2.496 0.96 4.416 2.496 5.664 4.704 1.248 2.208 1.536 4.512 0.864 7.104l-4.128 15.168h141.984z"
        fill="#E47C29"
        p-id="2635"></path>
</svg>