<?xml version="1.0" standalone="no"?><!DOCTYPE svg PUBLIC "-//W3C//DTD SVG 1.1//EN" "http://www.w3.org/Graphics/SVG/1.1/DTD/svg11.dtd">
<svg t="1712476757263"
     class="icon"
     viewBox="0 0 1024 1024"
     version="1.1"
     xmlns="http://www.w3.org/2000/svg"
     p-id="2167"
     xmlns:xlink="http://www.w3.org/1999/xlink"
     width="200"
     height="200">
    <path
        d="M957.226667 778.453333c-13.973333-55.466667-56.64-68.8-84.906667-77.653333-12.8-4.053333-24.853333-7.786667-30.826667-13.866667-27.306667-27.306667-5.653333-71.36-0.746666-80.426666 0.106667-0.106667 0.213333-0.213333 0.213333-0.32 41.173333-54.293333 86.506667-130.453333 70.826667-238.72C885.013333 183.146667 728.106667 64 512 64c-216.106667 0-373.013333 119.146667-399.786667 303.466667-15.68 108.16 29.653333 184.426667 70.826667 238.72 0 0.106667 0.106667 0.106667 0.106667 0.213333 4.48 8.213333 27.093333 52.8-0.64 80.533333-6.08 6.08-18.133333 9.813333-30.826667 13.76-28.266667 8.853333-71.04 22.186667-84.906667 77.76-12.693333 50.56 18.986667 107.2 71.893334 128.853334 13.653333 5.546667 29.013333 8.853333 45.226666 8.853333 32.853333 0 69.333333-13.333333 103.146667-48 24.746667 34.56 68.16 57.386667 117.546667 57.386667 43.2 0 81.813333-17.493333 107.413333-45.013334 25.6 27.52 64.213333 45.013333 107.413333 45.013334 49.386667 0 92.8-22.933333 117.546667-57.386667 33.813333 34.666667 70.293333 48 103.146667 48 16.213333 0 31.466667-3.2 45.226666-8.853333 52.906667-21.653333 84.48-78.293333 71.893334-128.853334z m-96.32 69.653334c-35.413333 14.293333-75.093333-9.173333-106.56-62.826667-2.133333-3.52-4.8-6.506667-7.786667-8.96-4.906667-3.84-10.88-6.293333-17.386667-6.72h-2.346666c-2.666667 0-5.333333 0.32-7.893334 0.96h-0.106666c-0.426667 0.106667-0.96 0.213333-1.386667 0.426667-0.106667 0-0.213333 0.106667-0.32 0.106666-0.32 0.106667-0.746667 0.213333-1.066667 0.32-0.213333 0.106667-0.426667 0.106667-0.64 0.213334-0.213333 0.106667-0.533333 0.213333-0.746666 0.32-0.32 0.106667-0.64 0.32-1.066667 0.426666-0.106667 0-0.213333 0.106667-0.32 0.106667-8.853333 4.053333-15.573333 12.16-17.813333 21.866667 0 0.213333-0.106667 0.426667-0.106667 0.64v0.213333c-0.426667 2.133333-0.64 4.373333-0.64 6.613333-0.213333 32.96-33.92 59.733333-75.413333 59.733334-41.6 0-75.413333-26.986667-75.413334-60.053334 0-17.706667-14.293333-32-32-32s-32 14.293333-32 32c0 33.066667-33.813333 60.053333-75.413333 60.053334-41.493333 0-75.306667-26.986667-75.306667-60.053334v-0.213333-0.64-1.066667-0.213333c-0.533333-8-3.946667-15.146667-9.28-20.48l-0.106666-0.106667-0.96-0.96c-0.106667-0.106667-0.213333-0.106667-0.213334-0.213333-0.32-0.32-0.64-0.533333-0.96-0.853333l-0.213333-0.213334c-0.32-0.32-0.64-0.533333-1.066667-0.853333-0.106667 0-0.106667-0.106667-0.213333-0.106667-0.32-0.213333-0.746667-0.533333-1.066667-0.746666-0.106667 0-0.106667-0.106667-0.213333-0.106667-0.426667-0.213333-0.746667-0.533333-1.173333-0.746667 0 0-0.106667 0-0.106667-0.106666-0.106667 0-0.106667-0.106667-0.213333-0.106667-0.32-0.213333-0.746667-0.426667-1.066667-0.533333-0.213333-0.106667-0.32-0.213333-0.533333-0.213334-0.32-0.106667-0.533333-0.32-0.853334-0.426666-0.213333-0.106667-0.426667-0.213333-0.746666-0.32l-0.64-0.32-0.96-0.32c-0.213333-0.106667-0.32-0.106667-0.533334-0.213334-0.32-0.106667-0.746667-0.213333-1.066666-0.426666-0.106667 0-0.213333-0.106667-0.32-0.106667l-1.28-0.32h-0.106667c-0.533333-0.106667-0.96-0.213333-1.493333-0.32-2.133333-0.426667-4.266667-0.64-6.293334-0.64h-2.56c-10.133333 0.746667-18.88 6.293333-24.213333 14.293333 0 0 0 0.106667-0.106667 0.106667-0.32 0.426667-0.533333 0.853333-0.746666 1.28 0 0 0 0.106667-0.106667 0.106667-31.573333 53.76-71.36 77.226667-106.666667 62.72-23.36-9.6-39.04-34.346667-34.133333-54.08 4.8-19.093333 14.186667-23.466667 41.92-32.106667 18.666667-5.866667 39.893333-12.48 57.066667-29.653333 52.266667-52.266667 30.506667-125.333333 9.386666-160.213334-0.746667-1.28-1.706667-2.56-2.56-3.733333-0.213333-0.213333-0.32-0.533333-0.533333-0.746667-51.413333-67.733333-68.373333-122.986667-58.453333-190.826666C193.066667 256.426667 290.56 128 512 128s319.04 128.426667 336.426667 248.64c9.813333 67.84-7.146667 123.093333-58.453334 190.826667-0.106667 0.106667-0.213333 0.32-0.32 0.426666-1.066667 1.28-2.026667 2.56-2.88 4.053334-21.12 34.88-42.986667 107.946667 9.386667 160.213333 17.173333 17.173333 38.4 23.786667 56.96 29.653333 27.84 8.64 37.226667 13.12 41.92 32.106667 5.013333 19.84-10.666667 44.586667-34.133333 54.186667z"
        fill="#E47C29"
        p-id="2168"></path>
    <path
        d="M608 317.76c-17.706667 0-32 14.293333-32 32v72.533333c0 17.706667 14.293333 32 32 32s32-14.293333 32-32v-72.533333c0-17.706667-14.293333-32-32-32zM416 317.76c-17.706667 0-32 14.293333-32 32v72.533333c0 17.706667 14.293333 32 32 32s32-14.293333 32-32v-72.533333c0-17.706667-14.293333-32-32-32z"
        fill="#E47C29"
        p-id="2169"></path>
</svg>