<?xml version="1.0" standalone="no"?><!DOCTYPE svg PUBLIC "-//W3C//DTD SVG 1.1//EN" "http://www.w3.org/Graphics/SVG/1.1/DTD/svg11.dtd">
<svg t="1712476769885"
     class="icon"
     viewBox="0 0 1024 1024"
     version="1.1"
     xmlns="http://www.w3.org/2000/svg"
     p-id="2322"
     xmlns:xlink="http://www.w3.org/1999/xlink"
     width="200"
     height="200">
    <path
        d="M843 335.5c12.6-71.3-0.2-125.9-37.3-156.1-21-17.1-48-25.1-80.2-23.8-28.5 1.1-60.6 9.6-95.3 25.1-62.2-29.4-115.8-26.5-192.2-10.2h-0.2c-48.2 10.3-93.1 29.7-133.2 57.7-38.8 27.1-71.5 61-97.4 100.8s-43.5 83.6-52.5 130c-9.3 48.1-8.8 96.9 1.5 145.2 12.3 57.6 17.4 72.1 47.7 106.2-14.5 74.5-2 131.7 36.1 162.8 19.6 16 44.5 23.9 73.6 23.9 29 0 62.2-7.9 98.3-23.7 39.9 16.3 78.5 24.4 116.6 24.4 12.4 0 24.7-0.8 37-2.5 51.3-7 102.8-28.9 157.3-66.8 40.6-28.2 75.2-63.3 103-104.3 27.1-40.2 46.3-84 57.1-130.2 21.2-91.2 6.9-182.2-39.9-258.5zM265.3 842.3c-14-11.4-22.7-29.4-25.9-53.5-3.2-24.2-0.8-53.2 7.3-86.3 0 0 1.3-3.1 0.9-3.6 0.2-0.9-3.5-3.7-3.5-3.7-33.6-36.2-36.3-41-48.6-99.2-18.1-85.1-2-172.1 45.4-245.1 47.3-72.9 120.2-123.1 205.3-141.2h0.2c95.8-20.4 124.4-18.7 190 24.9 0 0 67.8-61.4 144.1-24.1 31.2 15.3 34.1 69 20.6 131l-1.4 1c0.3 0.4 0.6 0.9 0.9 1.3-1.7 7.8-3.8 15.8-6.2 24-23.7 81.8-75.5 174.4-146 260.9-70.5 86.5-150.8 155.9-226.2 195.6-69.1 36.3-126.3 42.9-156.9 18zM844 584.9c-9.6 41.5-26.9 80.8-51.2 116.9-25 36.9-56.1 68.5-92.7 93.9-49.2 34.2-95 53.9-139.9 60-32.4 4.4-65.1 2-98.9-7.5 73.9-43.3 150.6-111.5 218.1-194.4 69.6-85.4 122-177.2 148.9-260.2 25.3 58.9 31 125 15.7 191.3z"
        fill="#333333"
        p-id="2323"></path>
    <path
        d="M462.1 591.4c0-31.4-25.5-56.9-56.9-56.9s-56.9 25.5-56.9 56.9 25.5 56.9 56.9 56.9c31.3 0 56.9-25.5 56.9-56.9z m-56.9 23.4c-12.9 0-23.4-10.5-23.4-23.4s10.5-23.4 23.4-23.4c12.9 0 23.4 10.5 23.4 23.4s-10.5 23.4-23.4 23.4zM554.6 467.1c41.9 0 76-34.1 76-76s-34.1-76-76-76-76 34.1-76 76 34.1 76 76 76z m0-111.9c19.8 0 36 16.1 36 36s-16.1 36-36 36-36-16.1-36-36 16.1-36 36-36z"
        fill="#333333"
        p-id="2324"></path>
</svg>