<?xml version="1.0" standalone="no"?><!DOCTYPE svg PUBLIC "-//W3C//DTD SVG 1.1//EN" "http://www.w3.org/Graphics/SVG/1.1/DTD/svg11.dtd">
<svg t="1712755668542"
     class="icon"
     viewBox="0 0 1024 1024"
     version="1.1"
     xmlns="http://www.w3.org/2000/svg"
     p-id="15496"
     xmlns:xlink="http://www.w3.org/1999/xlink"
     width="12"
     height="12">
    <path
        d="M471.755371 216.639151 471.755371 448 0 448 0 262.271203C0 233.041412 22.976845 209.664182 51.760091 209.664182L266.754511 209.664182C209.025786 197.364845 165.697183 172.230118 164.122749 125.851366 162.505053 71.167732 223.106076-17.170875 311.659093 3.007333 403.036511 23.935385 466.885287 95.871731 515.765354 157.481603 565.118214 94.601555 635.045324 13.660785 730.45385 0.881987 810.158208-9.340737 876.046483 71.592173 867.567098 125.004058 860.294419 171.807249 816.222637 197.316113 759.966368 209.609162L972.233728 209.609162C1001.023155 209.609162 1024 233.041412 1024 262.22247L1024 447.88996 552.196732 447.88996 551.200157 214.08465 471.755371 216.639151ZM316.866918 68.82855C276.550968 56.261995 252.924735 69.734198 235.948408 91.842913 226.71619 104.331492 216.772389 120.971789 231.503841 133.159599 270.286501 164.6289 376.645498 162.292931 448 156.440198 414.379138 123.312214 373.009932 86.29986 316.866918 68.82855L316.866918 68.82855ZM792.525466 134.538672C820.325005 106.103212 765.831494 46.848508 707.258694 68.759153 651.232966 89.790607 610.808607 124.137942 576 157.910858 606.003607 160.021594 636.399835 160.557492 666.496992 159.406387 703.17232 158.180506 771.06455 156.144546 792.525466 134.538672L792.525466 134.538672ZM479.943849 1024 80.692723 1024C53.846028 1024 32 1002.95273 32 976.528288L32 512 480 512 480 1024 479.943849 1024 479.943849 1024ZM992 976.523482C992 1002.948006 970.204659 1024 943.293466 1024L544 1024 544 512 992 512 992 976.523482 992 976.523482Z"
        fill="#5df7fa"
        p-id="15497"></path>
</svg>